name Walk3.mot
datacolumns 19
datarows 22
range 1.27600000 1.29700000
endheader

                time	   L_ground_force_vx	   L_ground_force_vy	   L_ground_force_vz	   L_ground_force_px	   L_ground_force_py	   L_ground_force_pz	   R_ground_force_vx	   R_ground_force_vy	   R_ground_force_vz	   R_ground_force_px	   R_ground_force_py	   R_ground_force_pz	   L_ground_torque_x	   L_ground_torque_y	   L_ground_torque_z	   R_ground_torque_x	   R_ground_torque_y	   R_ground_torque_z	
          1.27600000	          8.15078858	        719.97409193	         35.14933280	         -0.27078946	          0.00000000	         -0.04137735	          0.00000000	          0.00000000	          0.00000000	          0.00000000	          0.00000000	          0.00000000	          0.00000000	          0.35837261	          0.00000000	          0.00000000	          0.00000000	          0.00000000	
          1.27700000	          8.98811295	        721.37960510	         35.18845094	         -0.27079811	          0.00000000	         -0.04138109	          0.00000000	          0.00000000	          0.00000000	          0.00000000	          0.00000000	          0.00000000	          0.00000000	          0.28367323	          0.00000000	          0.00000000	          0.00000000	          0.00000000	
          1.27800000	          9.83849306	        722.72607955	         35.22774742	         -0.27084915	          0.00000000	         -0.04143200	          0.00000000	          0.00000000	          0.00000000	          0.00000000	          0.00000000	          0.00000000	          0.00000000	          0.20980477	          0.00000000	          0.00000000	          0.00000000	          0.00000000	
          1.27900000	         10.67116936	        724.00682153	         35.29211006	         -0.27092469	          0.00000000	         -0.04153223	          0.00000000	          0.00000000	          0.00000000	          0.00000000	          0.00000000	          0.00000000	          0.00000000	          0.14614844	          0.00000000	          0.00000000	          0.00000000	          0.00000000	
          1.28000000	         11.45852101	        725.25968936	         35.39230391	         -0.27099171	          0.00000000	         -0.04168474	          0.00000000	          0.00000000	          0.00000000	          0.00000000	          0.00000000	          0.00000000	          0.00000000	          0.09864954	          0.00000000	          0.00000000	          0.00000000	          0.00000000	
          1.28100000	         12.19576112	        726.54964504	         35.51984697	         -0.27100451	          0.00000000	         -0.04187123	          0.00000000	          0.00000000	          0.00000000	          0.00000000	          0.00000000	          0.00000000	          0.00000000	          0.07228134	          0.00000000	          0.00000000	          0.00000000	          0.00000000	
          1.28200000	         12.90530439	        727.93814525	         35.65699857	         -0.27092649	          0.00000000	         -0.04204380	          0.00000000	          0.00000000	          0.00000000	          0.00000000	          0.00000000	          0.00000000	          0.00000000	          0.06821036	          0.00000000	          0.00000000	          0.00000000	          0.00000000	
          1.28300000	         13.62037282	        729.43584433	         35.79081408	         -0.27075875	          0.00000000	         -0.04215195	          0.00000000	          0.00000000	          0.00000000	          0.00000000	          0.00000000	          0.00000000	          0.00000000	          0.08188967	          0.00000000	          0.00000000	          0.00000000	          0.00000000	
          1.28400000	         14.36391947	        730.98858602	         35.91431770	         -0.27054494	          0.00000000	         -0.04217587	          0.00000000	          0.00000000	          0.00000000	          0.00000000	          0.00000000	          0.00000000	          0.00000000	          0.10505227	          0.00000000	          0.00000000	          0.00000000	          0.00000000	
          1.28500000	         15.14289723	        732.51782624	         36.01966393	         -0.27034386	          0.00000000	         -0.04212829	          0.00000000	          0.00000000	          0.00000000	          0.00000000	          0.00000000	          0.00000000	          0.00000000	          0.12732614	          0.00000000	          0.00000000	          0.00000000	          0.00000000	
          1.28600000	         15.94934308	        733.97267101	         36.09947368	         -0.27019736	          0.00000000	         -0.04203065	          0.00000000	          0.00000000	          0.00000000	          0.00000000	          0.00000000	          0.00000000	          0.00000000	          0.14038434	          0.00000000	          0.00000000	          0.00000000	          0.00000000	
          1.28700000	         16.76242252	        735.33743146	         36.15312559	         -0.27011618	          0.00000000	         -0.04190801	          0.00000000	          0.00000000	          0.00000000	          0.00000000	          0.00000000	          0.00000000	          0.00000000	          0.14075862	          0.00000000	          0.00000000	          0.00000000	          0.00000000	
          1.28800000	         17.56580552	        736.61782015	         36.19067588	         -0.27008503	          0.00000000	         -0.04180221	          0.00000000	          0.00000000	          0.00000000	          0.00000000	          0.00000000	          0.00000000	          0.00000000	          0.12467151	          0.00000000	          0.00000000	          0.00000000	          0.00000000	
          1.28900000	         18.36438220	        737.83766290	         36.22878862	         -0.27008206	          0.00000000	         -0.04175756	          0.00000000	          0.00000000	          0.00000000	          0.00000000	          0.00000000	          0.00000000	          0.00000000	          0.08728608	          0.00000000	          0.00000000	          0.00000000	          0.00000000	
          1.29000000	         19.17361613	        739.02275273	         36.28129831	         -0.27009447	          0.00000000	         -0.04178404	          0.00000000	          0.00000000	          0.00000000	          0.00000000	          0.00000000	          0.00000000	          0.00000000	          0.03241653	          0.00000000	          0.00000000	          0.00000000	          0.00000000	
          1.29100000	         19.99521223	        740.19172356	         36.35665052	         -0.27011416	          0.00000000	         -0.04185257	          0.00000000	          0.00000000	          0.00000000	          0.00000000	          0.00000000	          0.00000000	          0.00000000	         -0.02393412	          0.00000000	          0.00000000	          0.00000000	          0.00000000	
          1.29200000	         20.80843893	        741.38244011	         36.45596967	         -0.27012872	          0.00000000	         -0.04192986	          0.00000000	          0.00000000	          0.00000000	          0.00000000	          0.00000000	          0.00000000	          0.00000000	         -0.06429411	          0.00000000	          0.00000000	          0.00000000	          0.00000000	
          1.29300000	         21.59116985	        742.65600380	         36.56639816	         -0.27012395	          0.00000000	         -0.04199885	          0.00000000	          0.00000000	          0.00000000	          0.00000000	          0.00000000	          0.00000000	          0.00000000	         -0.08183850	          0.00000000	          0.00000000	          0.00000000	          0.00000000	
          1.29400000	         22.34388469	        744.04694524	         36.66713949	         -0.27008851	          0.00000000	         -0.04204808	          0.00000000	          0.00000000	          0.00000000	          0.00000000	          0.00000000	          0.00000000	          0.00000000	         -0.08074176	          0.00000000	          0.00000000	          0.00000000	          0.00000000	
          1.29500000	         23.08396038	        745.53339325	         36.74904347	         -0.27001847	          0.00000000	         -0.04206861	          0.00000000	          0.00000000	          0.00000000	          0.00000000	          0.00000000	          0.00000000	          0.00000000	         -0.06861428	          0.00000000	          0.00000000	          0.00000000	          0.00000000	
          1.29600000	         23.83288559	        747.05426011	         36.82365998	         -0.26992173	          0.00000000	         -0.04206900	          0.00000000	          0.00000000	          0.00000000	          0.00000000	          0.00000000	          0.00000000	          0.00000000	         -0.05428049	          0.00000000	          0.00000000	          0.00000000	          0.00000000	
          1.29700000	         24.61304872	        748.53918375	         36.91091535	         -0.26981385	          0.00000000	         -0.04207778	          0.00000000	          0.00000000	          0.00000000	          0.00000000	          0.00000000	          0.00000000	          0.00000000	         -0.04971576	          0.00000000	          0.00000000	          0.00000000	          0.00000000	
